<svg viewBox="123.825 84.387 33.721 20.859" width="33.721" height="20.859" xmlns="http://www.w3.org/2000/svg">
    <path d="M 146.111 89.457 L 141.266 88.003 C 140.902 87.894 140.528 87.856 140.158 87.87 L 140.158 87.857 L 134.268 87.857 L 123.825 84.387 L 123.856 99.062 L 126.854 100.56 L 128.629 96.221 L 131.222 97.258 L 131.895 95.578 L 132.868 96.552 L 131.96 97.46 C 131.644 97.776 131.463 98.213 131.463 98.66 C 131.463 99.574 132.192 100.317 133.099 100.35 C 133.131 101.236 133.843 101.948 134.729 101.98 C 134.761 102.866 135.473 103.578 136.36 103.61 C 136.392 104.517 137.135 105.246 138.05 105.246 C 138.496 105.246 138.933 105.065 139.249 104.749 L 140.158 103.841 L 140.523 104.206 C 140.838 104.522 141.275 104.703 141.722 104.703 C 142.637 104.703 143.38 103.973 143.412 103.067 C 144.298 103.035 145.01 102.323 145.042 101.436 C 145.928 101.405 146.641 100.692 146.672 99.806 C 147.579 99.773 148.309 99.031 148.309 98.116 C 148.309 98.039 148.296 97.963 148.286 97.886 L 149.066 97.106 L 149.696 98.367 L 153.109 96.66 L 155.172 100.598 L 157.546 99.016 L 157.546 84.971 L 146.111 89.457 Z M 126.291 99.064 L 124.942 98.389 L 124.915 85.894 L 130.869 87.873 L 126.291 99.064 Z M 130.617 95.845 L 129.04 95.215 L 131.903 88.216 L 133.461 88.734 L 130.617 95.845 Z M 132.55 98.66 C 132.55 98.499 132.614 98.342 132.728 98.228 L 133.683 97.273 C 133.797 97.16 133.954 97.095 134.114 97.095 C 134.45 97.095 134.724 97.369 134.724 97.704 C 134.724 97.864 134.659 98.022 134.545 98.135 L 133.59 99.091 C 133.477 99.204 133.319 99.269 133.159 99.269 C 132.823 99.269 132.55 98.995 132.55 98.66 Z M 134.18 100.29 C 134.18 100.129 134.245 99.972 134.358 99.859 L 135.314 98.903 C 135.427 98.79 135.584 98.725 135.745 98.725 C 136.08 98.725 136.354 98.999 136.354 99.334 C 136.354 99.495 136.289 99.652 136.175 99.765 L 135.22 100.721 C 135.107 100.834 134.95 100.899 134.789 100.899 C 134.453 100.899 134.18 100.625 134.18 100.29 Z M 135.81 101.92 C 135.81 101.759 135.875 101.603 135.988 101.489 L 136.944 100.534 C 137.057 100.42 137.215 100.355 137.375 100.355 C 137.711 100.355 137.984 100.629 137.984 100.965 C 137.984 101.125 137.919 101.282 137.806 101.395 L 136.85 102.351 C 136.737 102.464 136.58 102.529 136.42 102.529 C 136.084 102.529 135.81 102.256 135.81 101.92 Z M 139.436 103.026 L 138.481 103.981 C 138.367 104.095 138.21 104.159 138.05 104.159 C 137.714 104.159 137.441 103.886 137.441 103.55 C 137.441 103.39 137.505 103.233 137.619 103.119 L 138.574 102.164 C 138.688 102.05 138.845 101.986 139.005 101.986 C 139.341 101.986 139.614 102.259 139.614 102.595 C 139.614 102.755 139.549 102.912 139.436 103.026 Z M 146.613 98.725 C 146.452 98.725 146.295 98.661 146.182 98.547 L 141.629 93.994 L 140.86 94.762 L 145.413 99.315 C 145.527 99.429 145.592 99.586 145.592 99.746 C 145.592 100.082 145.318 100.355 144.982 100.355 C 144.822 100.355 144.665 100.291 144.551 100.177 L 139.998 95.624 L 139.23 96.392 L 143.783 100.945 C 143.897 101.059 143.961 101.216 143.961 101.377 C 143.961 101.712 143.688 101.986 143.352 101.986 C 143.192 101.986 143.035 101.921 142.921 101.808 L 138.368 97.254 L 137.6 98.023 L 142.153 102.576 C 142.266 102.689 142.331 102.846 142.331 103.007 C 142.331 103.342 142.058 103.616 141.722 103.616 C 141.562 103.616 141.405 103.551 141.291 103.438 L 140.678 102.825 C 140.689 102.749 140.701 102.672 140.701 102.595 C 140.701 101.68 139.972 100.937 139.065 100.905 C 139.033 100.019 138.321 99.306 137.434 99.275 C 137.403 98.388 136.69 97.676 135.804 97.644 C 135.772 96.738 135.029 96.008 134.114 96.008 C 134.037 96.008 133.961 96.021 133.885 96.031 L 132.333 94.48 L 134.548 88.944 L 137.759 88.944 L 135.764 90.94 C 135.443 91.26 135.267 91.686 135.267 92.139 C 135.267 93.074 136.028 93.835 136.963 93.835 C 137.41 93.835 137.847 93.654 138.162 93.338 L 139.602 91.898 C 139.896 91.604 140.415 91.593 140.722 91.874 L 141.992 93.039 C 142.414 93.425 142.883 93.747 143.385 93.999 L 147.043 97.685 C 147.157 97.799 147.222 97.956 147.222 98.116 C 147.222 98.452 146.948 98.725 146.613 98.725 Z M 147.765 96.87 L 145.532 94.619 C 145.731 94.638 145.932 94.65 146.135 94.65 L 146.135 93.563 C 144.87 93.563 143.659 93.092 142.727 92.237 L 141.456 91.073 C 140.739 90.414 139.522 90.441 138.834 91.13 L 137.394 92.57 C 137.28 92.683 137.123 92.748 136.963 92.748 C 136.627 92.748 136.354 92.475 136.354 92.139 C 136.354 91.976 136.417 91.823 136.532 91.708 L 138.603 89.637 C 139.212 89.028 140.126 88.796 140.953 89.044 L 145.753 90.484 L 148.552 96.083 L 147.765 96.87 Z M 150.182 96.909 L 146.887 90.319 L 149.293 89.375 L 152.605 95.697 L 150.182 96.909 Z M 156.46 98.435 L 155.574 99.025 L 150.311 88.977 L 156.46 86.565 L 156.46 98.435 Z" fill="#E3B873"/>
</svg>