<?xml version="1.0"?>
<svg width="71" height="29" xmlns="http://www.w3.org/2000/svg" xmlns:svg="http://www.w3.org/2000/svg">
 <g class="layer">
  <title>Layer 1</title>
  <g id="Group 2">
   <g id="Group 3"/>
   <g id="Group 4">
    <g id="Group 2_3">
     <circle cx="14" cy="14.32" fill="#E3B873" id="Ellipse_2" r="14"/>
     <g id="Group_3">
      <path d="m17,8.72l-6,0c-1.66,0 -3,1.34 -3,3l0,6c0,1.66 1.34,3 3,3l6,0c1.66,0 3,-1.34 3,-3l0,-6c0,-1.66 -1.34,-3 -3,-3z" id="Vector_3" stroke="white" stroke-width="1.5"/>
      <path d="m16.4,14.34c0.07,0.5 -0.01,1.01 -0.24,1.46c-0.24,0.45 -0.6,0.81 -1.06,1.04c-0.45,0.23 -0.96,0.31 -1.46,0.22c-0.49,-0.08 -0.95,-0.31 -1.31,-0.67c-0.36,-0.35 -0.59,-0.81 -0.67,-1.31c-0.08,-0.5 0,-1.01 0.22,-1.46c0.23,-0.45 0.59,-0.82 1.04,-1.05c0.45,-0.24 0.96,-0.32 1.46,-0.25c0.51,0.08 0.98,0.31 1.34,0.68c0.37,0.36 0.6,0.83 0.68,1.34z" id="Vector_4" stroke="white" stroke-linecap="round" stroke-linejoin="round" stroke-width="1.5"/>
     </g>
    </g>
   </g>
  </g>
 </g>
</svg>